<svg width="38" height="53" viewBox="0 0 38 53" fill="none" xmlns="http://www.w3.org/2000/svg">
<mask id="path-1-inside-1_2091_144" fill="white">
<path d="M6.1377 13.849C6.1377 6.20043 12.3381 0 19.9867 0C27.6353 0 33.8358 6.20043 33.8358 13.849V23.4686H6.1377V13.849Z"/>
</mask>
<path d="M6.1377 13.849C6.1377 6.20043 12.3381 0 19.9867 0C27.6353 0 33.8358 6.20043 33.8358 13.849V23.4686H6.1377V13.849Z" fill="white"/>
<path d="M4.1377 13.849C4.1377 5.09586 11.2336 -2 19.9867 -2C28.7399 -2 35.8358 5.09586 35.8358 13.849L31.8358 13.849C31.8358 7.305 26.5308 2 19.9867 2H19.9867C13.4427 2 8.1377 7.305 8.1377 13.849L4.1377 13.849ZM33.8358 23.4686H6.1377H33.8358ZM4.1377 23.4686V13.849C4.1377 5.09586 11.2336 -2 19.9867 -2L19.9867 2C13.4427 2 8.1377 7.305 8.1377 13.849V23.4686H4.1377ZM19.9867 -2C28.7399 -2 35.8358 5.09586 35.8358 13.849V23.4686H31.8358V13.849C31.8358 7.305 26.5308 2 19.9867 2L19.9867 -2Z" fill="black" mask="url(#path-1-inside-1_2091_144)"/>
<mask id="path-3-inside-2_2091_144" fill="white">
<path d="M33.8357 33.0882C33.8357 40.7368 27.6353 46.9373 19.9867 46.9373C12.338 46.9373 6.13761 40.7368 6.13761 33.0882L6.13761 23.4686L33.8357 23.4686V33.0882Z"/>
</mask>
<path d="M33.8357 33.0882C33.8357 40.7368 27.6353 46.9373 19.9867 46.9373C12.338 46.9373 6.13761 40.7368 6.13761 33.0882L6.13761 23.4686L33.8357 23.4686V33.0882Z" fill="#FBCDCD"/>
<path d="M35.8357 33.0882C35.8357 41.8414 28.7398 48.9373 19.9867 48.9373C11.2335 48.9373 4.13761 41.8414 4.13761 33.0882L8.13761 33.0882C8.13761 39.6323 13.4426 44.9373 19.9867 44.9373H19.9867C26.5307 44.9373 31.8357 39.6323 31.8357 33.0882L35.8357 33.0882ZM6.13761 23.4686L33.8357 23.4686L6.13761 23.4686ZM35.8357 23.4686V33.0882C35.8357 41.8414 28.7398 48.9373 19.9867 48.9373L19.9867 44.9373C26.5307 44.9373 31.8357 39.6323 31.8357 33.0882L31.8357 23.4686H35.8357ZM19.9867 48.9373C11.2335 48.9373 4.13761 41.8414 4.13761 33.0882L4.13761 23.4686H8.13761L8.13761 33.0882C8.13761 39.6323 13.4426 44.9373 19.9867 44.9373L19.9867 48.9373Z" fill="black" mask="url(#path-3-inside-2_2091_144)"/>
<path d="M13.5088 14.7657C13.5088 14.2796 13.9028 13.8856 14.3889 13.8856H15.9793C16.4653 13.8856 16.8594 14.2796 16.8594 14.7657C16.8594 15.2517 16.4653 15.6457 15.9793 15.6457H14.3889C13.9028 15.6457 13.5088 15.2517 13.5088 14.7657Z" fill="#FBCDCD"/>
<path d="M16.3046 9.38842C16.8598 9.38894 17.3093 9.8394 17.3086 10.3945L17.3074 11.3178C17.3067 11.8729 16.8561 12.3225 16.301 12.322C15.7459 12.3215 15.2964 11.871 15.2971 11.3159L15.2982 10.3926C15.2989 9.83749 15.7495 9.38789 16.3046 9.38842Z" fill="black"/>
<path d="M15.9698 52.2791C16.0036 52.5384 15.8201 52.7696 15.5599 52.7956L14.2651 52.925C14.0049 52.951 13.7665 52.7619 13.7327 52.5026C13.6989 52.2433 13.8825 52.012 14.1427 51.986L15.4375 51.8566C15.6977 51.8306 15.936 52.0198 15.9698 52.2791Z" fill="black"/>
<path d="M24.1228 9.38842C24.6779 9.38894 25.1274 9.8394 25.1267 10.3945L25.1255 11.3178C25.1248 11.8729 24.6743 12.3225 24.1191 12.322C23.564 12.3215 23.1145 11.871 23.1152 11.3159L23.1163 10.3926C23.117 9.83749 23.5676 9.38789 24.1228 9.38842Z" fill="black"/>
<path d="M36.4616 31.0963C36.6775 31.0965 36.8523 31.2717 36.8521 31.4876L36.8516 31.8516C36.8513 32.0674 36.6761 32.2423 36.4602 32.2421C36.2443 32.2419 36.0695 32.0667 36.0698 31.8508L36.0703 31.4868C36.0705 31.2709 36.2458 31.0961 36.4616 31.0963Z" fill="black"/>
<path d="M24.0073 14.7657C24.0073 14.2796 24.4013 13.8856 24.8874 13.8856H26.4778C26.9639 13.8856 27.3579 14.2796 27.3579 14.7657C27.3579 15.2517 26.9639 15.6457 26.4778 15.6457H24.8874C24.4013 15.6457 24.0073 15.2517 24.0073 14.7657Z" fill="#FBCDCD"/>
<path d="M18.8696 16.6236C19.4533 16.9975 19.7198 17.4395 20.4332 17.4059C21.1994 17.4793 21.4681 17.0308 21.9968 16.6236" stroke="black" stroke-width="2"/>
<line y1="-1" x2="6.26159" y2="-1" transform="matrix(0.0670339 0.997751 -0.998676 0.0514345 15.0725 46.155)" stroke="black" stroke-width="2"/>
<path d="M23.6137 52.3034C23.5799 52.564 23.7644 52.7966 24.0259 52.8228L25.3167 52.9524C25.5782 52.9787 25.8175 52.7887 25.8513 52.5281C25.8851 52.2675 25.7006 52.035 25.4391 52.0087L24.1483 51.8791C23.8869 51.8529 23.6475 52.0429 23.6137 52.3034Z" fill="black"/>
<line y1="-1" x2="6.26156" y2="-1" transform="matrix(-0.0667093 0.997772 0.998663 0.0516852 24.5723 46.155)" stroke="black" stroke-width="2"/>
<path d="M33.7242 25.5221C36.3288 28.539 36.239 28.8706 36.5164 31.5849" stroke="black" stroke-width="2"/>
<path d="M6.25057 25.4565C3.57769 28.5044 3.66989 28.8394 3.38519 31.5816" stroke="black" stroke-width="2"/>
<path d="M3.4028 31.0963C3.61869 31.0965 3.79348 31.2717 3.79322 31.4876L3.79276 31.8516C3.79249 32.0674 3.61726 32.2423 3.40138 32.2421C3.18549 32.2419 3.01069 32.0667 3.01096 31.8508L3.01141 31.4868C3.01168 31.2709 3.18691 31.0961 3.4028 31.0963Z" fill="black"/>
<path d="M4.33301 34.2021L4.60254 35.1806H2.31152L2.58105 34.2021H4.33301Z" fill="#FBCDCD" stroke="black" stroke-width="2"/>
<path d="M1.65527 33.9468C2.69318 34.9139 4.14941 34.7694 5.259 33.9468" stroke="#171616" stroke-width="2"/>
<path d="M2.3103 33.3676C3.01797 31.225 4.01085 31.545 4.76739 33.3676" stroke="#171616" stroke-width="2"/>
</svg>
