<svg width="49" height="40" viewBox="0 0 49 40" fill="none" xmlns="http://www.w3.org/2000/svg">
<rect x="0.5" width="48" height="40" rx="20" fill="#D853F3" fill-opacity="0.37"/>
<path fill-rule="evenodd" clip-rule="evenodd" d="M24.5 11C19.5294 11 15.5 15.0294 15.5 20C15.5 24.9706 19.5294 29 24.5 29C29.4706 29 33.5 24.9706 33.5 20C33.5 15.0294 29.4706 11 24.5 11ZM13.5 20C13.5 13.9249 18.4249 9 24.5 9C30.5751 9 35.5 13.9249 35.5 20C35.5 26.0751 30.5751 31 24.5 31C18.4249 31 13.5 26.0751 13.5 20Z" fill="#FF52EE"/>
<path fill-rule="evenodd" clip-rule="evenodd" d="M24.5 13C25.0523 13 25.5 13.4477 25.5 14V19.382L28.9472 21.1056C29.4412 21.3526 29.6414 21.9532 29.3944 22.4472C29.1474 22.9412 28.5468 23.1414 28.0528 22.8944L24.0528 20.8944C23.714 20.725 23.5 20.3788 23.5 20V14C23.5 13.4477 23.9477 13 24.5 13Z" fill="#FF52EE"/>
</svg>
