<svg width="49" height="40" viewBox="0 0 49 40" fill="none" xmlns="http://www.w3.org/2000/svg">
<rect x="0.5" width="48" height="40" rx="20" fill="#D853F3" fill-opacity="0.37"/>
<path fill-rule="evenodd" clip-rule="evenodd" d="M23.8861 9.21065C24.2472 8.92978 24.7528 8.92978 25.1139 9.21065L34.1139 16.2106C34.3575 16.4001 34.5 16.6914 34.5 17V28C34.5 28.7957 34.1839 29.5587 33.6213 30.1213C33.0587 30.6839 32.2957 31 31.5 31H17.5C16.7043 31 15.9413 30.6839 15.3787 30.1213C14.8161 29.5587 14.5 28.7957 14.5 28V17C14.5 16.6914 14.6425 16.4001 14.8861 16.2106L23.8861 9.21065ZM16.5 17.4891V28C16.5 28.2652 16.6054 28.5196 16.7929 28.7071C16.9804 28.8946 17.2348 29 17.5 29H31.5C31.7652 29 32.0196 28.8946 32.2071 28.7071C32.3946 28.5196 32.5 28.2652 32.5 28V17.4891L24.5 11.2669L16.5 17.4891Z" fill="#FF52EE"/>
<path fill-rule="evenodd" clip-rule="evenodd" d="M20.5 20C20.5 19.4477 20.9477 19 21.5 19H27.5C28.0523 19 28.5 19.4477 28.5 20V30C28.5 30.5523 28.0523 31 27.5 31C26.9477 31 26.5 30.5523 26.5 30V21H22.5V30C22.5 30.5523 22.0523 31 21.5 31C20.9477 31 20.5 30.5523 20.5 30V20Z" fill="#FF52EE"/>
</svg>
