<svg width="49" height="40" viewBox="0 0 49 40" fill="none" xmlns="http://www.w3.org/2000/svg">
<rect x="0.5" width="48" height="40" rx="20" fill="#D853F3" fill-opacity="0.37"/>
<path fill-rule="evenodd" clip-rule="evenodd" d="M16.9645 23.4645C17.9021 22.5268 19.1739 22 20.5 22H28.5C29.8261 22 31.0979 22.5268 32.0355 23.4645C32.9732 24.4021 33.5 25.6739 33.5 27V29C33.5 29.5523 33.0523 30 32.5 30C31.9477 30 31.5 29.5523 31.5 29V27C31.5 26.2044 31.1839 25.4413 30.6213 24.8787C30.0587 24.3161 29.2956 24 28.5 24H20.5C19.7044 24 18.9413 24.3161 18.3787 24.8787C17.8161 25.4413 17.5 26.2044 17.5 27V29C17.5 29.5523 17.0523 30 16.5 30C15.9477 30 15.5 29.5523 15.5 29V27C15.5 25.6739 16.0268 24.4021 16.9645 23.4645Z" fill="#FF52EE"/>
<path fill-rule="evenodd" clip-rule="evenodd" d="M24.5 12C22.8431 12 21.5 13.3431 21.5 15C21.5 16.6569 22.8431 18 24.5 18C26.1569 18 27.5 16.6569 27.5 15C27.5 13.3431 26.1569 12 24.5 12ZM19.5 15C19.5 12.2386 21.7386 10 24.5 10C27.2614 10 29.5 12.2386 29.5 15C29.5 17.7614 27.2614 20 24.5 20C21.7386 20 19.5 17.7614 19.5 15Z" fill="#FF52EE"/>
</svg>
